<svg xmlns="http://www.w3.org/2000/svg" viewBox="0 0 100 110" width="100" height="110">
  <!-- Tronc et branches -->
  <g fill="none" stroke="#3a3a3a" stroke-linecap="round" stroke-linejoin="round">
    <line x1="50" y1="108" x2="50" y2="70" stroke-width="5"/>
    <line x1="50" y1="70" x2="30" y2="52" stroke-width="3"/>
    <line x1="50" y1="70" x2="70" y2="52" stroke-width="3"/>
    <line x1="50" y1="70" x2="50" y2="48" stroke-width="3"/>
    <line x1="30" y1="52" x2="18" y2="40" stroke-width="2"/>
    <line x1="30" y1="52" x2="30" y2="38" stroke-width="2"/>
    <line x1="30" y1="52" x2="42" y2="40" stroke-width="2"/>
    <line x1="70" y1="52" x2="58" y2="40" stroke-width="2"/>
    <line x1="70" y1="52" x2="70" y2="38" stroke-width="2"/>
    <line x1="70" y1="52" x2="82" y2="40" stroke-width="2"/>
    <line x1="50" y1="48" x2="40" y2="36" stroke-width="2"/>
    <line x1="50" y1="48" x2="50" y2="34" stroke-width="2"/>
    <line x1="50" y1="48" x2="60" y2="36" stroke-width="2"/>
  </g>

  <!-- Feuilles en gris anthracite -->
  <g fill="#3a3a3a" opacity="0.85">
    <ellipse cx="14" cy="36" rx="6" ry="8" transform="rotate(-20 14 36)"/>
    <ellipse cx="26" cy="30" rx="6" ry="8" transform="rotate(10 26 30)"/>
    <ellipse cx="38" cy="33" rx="6" ry="8" transform="rotate(-10 38 33)"/>
    <ellipse cx="10" cy="24" rx="5" ry="7" transform="rotate(-30 10 24)"/>
    <ellipse cx="22" cy="18" rx="6" ry="8" transform="rotate(5 22 18)"/>
    <ellipse cx="34" cy="22" rx="5" ry="7" transform="rotate(15 34 22)"/>
    <ellipse cx="44" cy="28" rx="6" ry="8" transform="rotate(-15 44 28)"/>
    <ellipse cx="50" cy="20" rx="6" ry="9" transform="rotate(0 50 20)"/>
    <ellipse cx="56" cy="28" rx="6" ry="8" transform="rotate(15 56 28)"/>
    <ellipse cx="46" cy="12" rx="5" ry="7" transform="rotate(-10 46 12)"/>
    <ellipse cx="54" cy="12" rx="5" ry="7" transform="rotate(10 54 12)"/>
    <ellipse cx="62" cy="33" rx="6" ry="8" transform="rotate(10 62 33)"/>
    <ellipse cx="74" cy="30" rx="6" ry="8" transform="rotate(-10 74 30)"/>
    <ellipse cx="86" cy="36" rx="6" ry="8" transform="rotate(20 86 36)"/>
    <ellipse cx="66" cy="22" rx="5" ry="7" transform="rotate(-15 66 22)"/>
    <ellipse cx="78" cy="18" rx="6" ry="8" transform="rotate(-5 78 18)"/>
    <ellipse cx="90" cy="24" rx="5" ry="7" transform="rotate(30 90 24)"/>
    <ellipse cx="18" cy="14" rx="5" ry="6" transform="rotate(-20 18 14)"/>
    <ellipse cx="82" cy="14" rx="5" ry="6" transform="rotate(20 82 14)"/>
    <ellipse cx="50" cy="5"  rx="5" ry="6"/>
  </g>
</svg>
